
About a 16-year-old boy's odyssey through a post-nuke wasteland as he searches for a new heart to save his dying sister.

Cast: Lance Henriksen ... Mulciber (voice)

Danielle Harris ... Halfpipe
Justin Courtney Pierre ... Tommy (voice)

Nicki Clyne ... Soledad (voice)
Davey Havok ... Dragos (voice)

Tiffany Shepis ... Angelfuck (voice)

Bill Moseley ... Dr. West (voice)
  
http://img412.imageshack.us/img412/1810/vlcsnap2010091921h27m31.png  
http://img148.imageshack.us/img148/7897/vlcsnap2010091921h28m23.png  
http://img828.imageshack.us/img828/624/vlcsnap2010091921h29m29.png  
http://img85.imageshack.us/img85/1736/vlcsnap2010091921h30m01.png  
http://img291.imageshack.us/img291/6160/vlcsnap2010091921h30m26.png  
http://img808.imageshack.us/img808/8807/vlcsnap2010091921h36m17.png  
http://img826.imageshack.us/img826/9355/vlcsnap2010091921h36m36.png  
http://img693.imageshack.us/img693/4981/vlcsnap2010091921h36m55.png
  
http://www.imdb.com/title/tt1384961/

Encoded By Xclusive666..:)


Format;Avi

File Size:812mb

Video: ID : 0
Format : MPEG-4 Visual
Format profile : Advanced Simple@L5
Format settings, BVOP : Yes
Format settings, QPel : No
Format settings, GMC : No warppoints
Format settings, Matrix : Default (H.263)
Muxing mode : Packed bitstream
Codec ID : XVID
Codec ID/Hint : XviD
Duration : 1h 12mn
Bit rate : 1 105 Kbps
Width : 680 pixels
Height : 380 pixels
Display aspect ratio : 16:9
Frame rate : 29.970 fps
Resolution : 8 bits
Colorimetry : 4:2:0
Scan type : Progressive
Bits/(Pixel*Frame) : 0.143
Stream size : 574 MiB (71%)
Writing library : XviD 1.2.1 (UTC 2008-12-04)

Audio: ID : 1
Format : AC-3
Format/Info : Audio Coding 3
Codec ID : 2000
Duration : 1h 12mn
Bit rate mode : Constant
Bit rate : 448 Kbps
Channel(s) : 6 channels
Channel positions : Front: L C R, Surround: L R, LFE
Sampling rate : 48.0 KHz
Stream size : 233 MiB (29%)
Alignment : Aligned on interleaves
Interleave, duration : 33 ms (1.00 video frame)
Interleave, preload duration : 512 ms

Duration:1:12

Release Date:2010

Language:English